<svg id="Layer_1" enable-background="new 0 0 509.768 509.768" height="512" viewBox="0 0 509.768 509.768" width="512" xmlns="http://www.w3.org/2000/svg"><g><path d="m75.168 209.768h45v30h-45z"/><path d="m150.168 209.768h45v30h-45z"/><path d="m225.168 209.768h45v30h-45z"/><path d="m300.168 209.768h45v30h-45z"/><path d="m75.168 269.768h45v30h-45z"/><path d="m150.168 269.768h45v30h-45z"/><path d="m225.168 269.768h45v30h-45z"/><path d="m75.168 329.768h45v30h-45z"/><path d="m150.168 329.768h45v30h-45z"/><path d="m420.168 300.844v-256.076h-60c-2.478-59.713-87.544-59.667-90 0h-120c-2.479-59.713-87.544-59.667-90 0h-60v375h301.076c7.301 50.816 51.119 90 103.924 90 130.301-4.034 142.468-186.87 15-208.924zm-120-256.076c.826-19.905 29.182-19.889 30 0v45h-30zm-210 0c.826-19.904 29.181-19.889 30 0v45h-30zm-30 30v45h90v-45h120v45h90v-45h30v75h-360v-75zm-30 105h360v121.076c-45.916 6.597-82.327 43.008-88.924 88.924h-271.076zm375 300c-41.355 0-75-33.645-75-75 4.119-99.498 145.896-99.469 150 .001 0 41.354-33.644 74.999-75 74.999z"/><path d="m420.168 359.768h-30v60h60v-30h-30z"/></g></svg>